<?xml version="1.0" standalone="no"?>
<!DOCTYPE svg PUBLIC "-//W3C//DTD SVG 20010904//EN"
 "http://www.w3.org/TR/2001/REC-SVG-20010904/DTD/svg10.dtd">
<svg version="1.0" xmlns="http://www.w3.org/2000/svg"
 width="199.000000pt" height="464.000000pt" viewBox="0 0 199.000000 464.000000"
 preserveAspectRatio="xMidYMid meet">
<metadata>
Created by potrace 1.16, written by Peter Selinger 2001-2019
</metadata>
<g transform="translate(0.000000,464.000000) scale(0.100000,-0.100000)"
fill="#000000" stroke="none">
<path d="M895 4582 c-130 -46 -248 -135 -318 -239 -30 -44 -84 -168 -92 -212
-3 -14 -8 -39 -12 -56 -17 -64 -6 -385 13 -417 3 -4 7 -21 10 -36 3 -15 7 -34
11 -42 3 -8 7 -18 8 -22 2 -5 4 -10 5 -13 1 -3 3 -8 4 -12 1 -5 8 -19 16 -33
7 -14 13 -26 12 -27 -1 -2 -1 -6 -1 -10 1 -5 1 -15 0 -23 -2 -20 70 -160 120
-232 l39 -58 -28 -6 c-137 -30 -200 -50 -279 -90 l-93 -47 -26 24 c-73 68
-107 182 -89 297 6 41 -10 41 -31 1 -11 -22 -14 -48 -11 -88 4 -49 11 -91 17
-98 2 -2 3 -6 4 -10 3 -22 59 -104 85 -126 l29 -24 -49 -38 c-73 -56 -126
-120 -165 -202 -33 -68 -35 -79 -33 -160 2 -97 18 -145 71 -220 63 -87 235
-173 382 -192 43 -5 79 -11 80 -13 2 -1 8 -48 14 -103 6 -55 13 -111 16 -125
2 -14 7 -45 10 -70 4 -25 12 -63 17 -85 11 -41 16 -61 25 -104 3 -14 7 -28 10
-33 3 -4 7 -16 9 -25 4 -20 71 -222 87 -262 6 -14 15 -37 20 -51 6 -14 14 -32
18 -40 19 -39 21 -79 5 -109 -8 -17 -13 -31 -9 -31 4 0 2 -6 -4 -12 -6 -7 -14
-31 -18 -53 -5 -22 -9 -43 -10 -47 -1 -5 -2 -12 -3 -18 -2 -15 -39 -12 -121
11 -153 42 -277 113 -413 238 -42 39 -82 71 -87 71 -23 0 -6 -25 63 -94 119
-120 267 -206 439 -255 57 -16 102 -33 101 -38 -18 -90 -24 -346 -10 -448 16
-121 59 -267 115 -388 25 -55 40 -77 51 -75 13 3 91 143 88 158 -1 3 4 21 10
40 12 35 16 54 33 165 21 133 5 384 -31 475 -24 64 -22 68 39 75 162 18 249
45 380 115 187 101 372 296 471 496 80 162 86 193 86 434 0 245 -6 275 -93
445 -105 209 -195 325 -331 433 -127 101 -127 117 -4 188 87 51 231 188 290
277 51 77 118 232 130 300 10 57 10 293 -1 342 -4 22 -12 48 -17 58 -5 9 -7
17 -5 17 11 0 -63 148 -99 199 -106 148 -308 287 -510 352 -56 17 -100 23
-215 26 -139 4 -148 3 -225 -25z m438 -42 c89 -28 83 -35 -8 -9 -269 76 -531
-11 -659 -218 -59 -96 -87 -192 -87 -297 0 -91 3 -129 16 -176 3 -14 8 -32 10
-40 2 -8 4 -16 5 -17 2 -2 3 -6 4 -10 1 -5 7 -18 14 -30 7 -13 10 -23 7 -23
-8 0 28 -48 131 -175 128 -159 274 -358 317 -431 4 -7 -16 -5 -52 6 -32 11
-86 22 -120 26 -33 3 -65 12 -70 18 -22 27 -161 319 -182 381 -7 22 -16 45
-20 50 -3 6 -16 44 -29 85 -12 41 -33 90 -47 108 -29 39 -33 57 -33 177 0 101
5 136 35 240 1 6 2 12 1 15 -3 16 75 133 120 180 67 70 145 117 242 147 68 20
92 23 207 19 98 -3 147 -9 198 -26z m2 -48 c183 -49 343 -148 432 -267 50 -67
111 -177 118 -213 2 -9 4 -17 5 -17 3 0 8 -27 20 -105 19 -118 -6 -297 -57
-414 -36 -83 -134 -225 -191 -278 -43 -40 -174 -138 -184 -138 -2 0 -1 26 3
58 19 168 -43 401 -138 511 -61 72 -112 84 -229 55 -61 -16 -68 -16 -100 0
-41 19 -52 41 -31 64 34 39 57 102 57 156 0 182 -187 281 -316 168 -48 -41
-83 -148 -64 -196 5 -14 6 -26 1 -26 -23 0 -38 253 -19 312 6 18 13 40 16 48
3 8 6 20 7 26 7 30 61 106 104 147 70 66 175 113 286 131 57 9 210 -3 280 -22z
m-399 -441 c50 -39 62 -66 64 -140 1 -39 -1 -48 -20 -98 -16 -43 -27 -42 -22
2 2 19 8 35 13 35 13 0 11 61 -4 89 -6 13 -21 30 -32 37 -29 19 -72 -5 -148
-82 -71 -73 -79 -70 -83 28 -3 68 21 112 76 141 46 24 118 18 156 -12z m8
-128 c4 -16 9 -37 12 -48 4 -15 3 -16 -4 -6 -18 26 -35 -28 -34 -111 2 -112
23 -128 173 -128 58 0 100 -5 117 -14 44 -23 140 -134 146 -169 1 -7 8 -22 14
-34 7 -13 10 -23 7 -23 -4 0 -3 -6 2 -12 4 -7 8 -17 10 -23 19 -85 21 -101 28
-226 6 -91 4 -107 -9 -112 -14 -5 -16 5 -17 71 -1 102 -2 107 -51 209 -23 48
-41 92 -40 97 5 16 -51 87 -79 102 -39 20 -69 18 -69 -3 0 -28 16 -47 31 -38
8 5 11 5 7 0 -4 -4 -1 -20 8 -36 8 -16 12 -29 8 -29 -4 0 -1 -7 6 -15 7 -8 9
-15 5 -15 -4 0 -2 -7 5 -15 7 -8 9 -15 5 -15 -4 0 -2 -7 5 -15 7 -8 10 -15 7
-15 -3 0 -1 -15 4 -32 6 -18 12 -51 15 -73 4 -37 11 -165 8 -165 -1 0 -27 11
-58 25 -50 22 -61 33 -116 116 -85 128 -222 312 -291 390 -57 66 -58 67 -34
73 42 11 43 49 3 113 l-35 56 46 46 c102 103 153 126 165 74z m-160 -892 c26
-44 54 -97 61 -118 l13 -38 -36 -6 c-49 -9 -212 7 -282 27 -30 8 -86 29 -123
46 l-68 31 75 44 c74 43 221 91 282 92 27 1 34 -6 78 -78z m202 59 c115 -27
127 -35 157 -96 15 -30 27 -58 27 -63 0 -9 -126 -41 -161 -41 -10 0 -20 8 -23
18 -4 10 -23 45 -42 78 -75 123 -76 124 -56 124 9 0 53 -9 98 -20z m-451 -231
c48 -14 111 -23 201 -26 l131 -5 -10 -44 c-8 -34 -29 -64 -98 -139 -81 -89
-143 -181 -154 -230 -2 -11 -7 -31 -10 -45 -4 -14 -9 -60 -12 -103 l-6 -78
-41 7 c-70 11 -205 53 -259 80 -112 56 -155 110 -186 232 -33 129 10 242 140
374 l77 77 78 -40 c44 -22 111 -49 149 -60z m672 5 c3 -9 6 -35 6 -57 1 -37
-8 -65 -46 -144 -6 -13 -7 -26 -4 -29 11 -11 39 19 58 61 13 28 19 34 20 20 6
-93 6 -116 -2 -121 -5 -3 -9 -12 -9 -20 0 -15 -37 -72 -83 -128 l-24 -30 -11
60 c-15 80 -19 95 -31 126 -7 19 -7 28 1 30 16 6 -20 109 -46 131 -11 10 -16
17 -11 16 23 -3 25 3 10 32 -9 17 -14 33 -12 35 2 3 33 9 68 15 35 6 65 12 68
15 11 10 42 3 48 -12z m367 -108 c80 -81 180 -213 207 -271 10 -22 27 -61 38
-86 12 -25 21 -51 21 -58 0 -7 6 -27 13 -44 67 -156 85 -335 52 -507 -39 -204
-156 -405 -328 -565 -98 -91 -189 -154 -275 -188 -73 -30 -203 -63 -283 -72
l-57 -7 -13 38 c-7 22 -13 41 -14 44 0 3 -6 15 -13 28 -7 12 -10 22 -6 22 3 0
1 6 -5 14 -9 11 -8 23 4 51 8 21 18 49 21 64 3 14 6 31 8 36 2 6 6 24 11 40
20 81 41 128 98 219 145 231 176 281 176 289 1 5 9 21 19 35 25 37 107 242 97
242 -3 0 -1 8 4 18 24 44 36 302 18 382 -15 70 -19 132 -10 153 6 12 20 42 31
67 11 25 26 65 32 90 6 25 13 52 15 60 2 8 4 16 4 18 2 9 74 -51 135 -112z
m-628 66 c0 -4 11 -29 24 -57 12 -27 27 -59 31 -70 8 -17 61 -181 64 -195 0
-3 5 -23 9 -45 16 -72 15 -76 -33 -111 -64 -47 -185 -109 -250 -128 -72 -21
-84 -21 -72 2 5 9 10 20 10 24 7 44 15 69 22 74 5 3 9 15 9 27 0 13 33 79 73
147 90 154 97 173 97 273 0 44 3 77 8 73 4 -4 7 -11 8 -14z m310 -466 c-3 -63
-8 -121 -11 -128 -2 -7 -6 -33 -9 -58 -2 -25 -16 -99 -30 -165 -20 -93 -39
-145 -82 -233 -58 -116 -74 -138 -49 -64 8 23 17 61 21 84 3 24 8 54 10 68 23
135 30 364 15 445 -8 44 -7 53 11 72 11 12 27 19 34 16 9 -3 30 11 52 35 20
22 39 41 40 41 2 1 1 -50 -2 -113z m-161 -103 c3 -43 4 -121 0 -173 -6 -92 -8
-106 -20 -180 -11 -71 -14 -87 -34 -165 -10 -44 -22 -96 -25 -116 -8 -52 -12
-61 -90 -204 -39 -71 -72 -133 -72 -137 -1 -4 -2 -14 -3 -20 -2 -12 -28 48
-36 82 -2 8 -4 16 -4 18 -1 1 0 4 2 5 1 2 -4 11 -12 20 -7 10 -10 17 -7 17 4
0 2 9 -4 19 -5 11 -13 37 -16 58 -3 21 -9 43 -12 48 -7 11 -8 14 -17 60 -3 17
-11 48 -17 70 -6 22 -12 47 -14 55 -27 146 -34 236 -27 357 l6 93 36 6 c93 15
229 74 306 132 22 17 43 31 46 31 4 1 10 -34 14 -76z m-271 -1370 c-22 -138 1
-579 36 -703 13 -44 11 -75 -1 -35 -6 17 -12 37 -14 45 -2 8 -4 16 -4 18 -1 1
-1 5 -2 10 -1 4 -5 14 -10 23 -4 9 -11 31 -14 50 -3 19 -13 59 -21 89 -37 138
-45 338 -19 490 9 56 12 60 36 60 18 0 20 -4 13 -47z m130 -10 c27 -84 40
-194 40 -343 0 -125 -4 -166 -29 -275 -1 -5 -4 -17 -7 -25 -3 -8 -13 -41 -23
-73 -21 -66 -32 -79 -32 -39 0 35 -13 144 -18 153 -3 3 -7 35 -10 70 -3 35 -8
87 -12 114 -3 28 -5 127 -3 220 5 275 -1 245 42 245 35 0 37 -2 52 -47z"/>
</g>
</svg>
